# xmcd
#
# Track frame offsets:
#	150
#	7353
#	35659
#	75812
#	111298
#	159917
#	212799
#	251463
#	287635
#
# Disc length: 4485 seconds
#
# Revision: 1
# Processed by: cddbd v1.5.2PL0 Copyright (c) Steve Scherf et al.
# Submitted via: audiograbber 1.83.01
#
DISCID=71118309
DTITLE=Joe Bonamassa - Mr. Kyps (Live) [CD 1)
DYEAR=2005
DGENRE=Blues-Rock
TTITLE0=Introduction
TTITLE1=Woke Up Dreaming
TTITLE2=Takin' The Hit
TTITLE3=A New Day Yesterday
TTITLE4=Blues Deluxe
TTITLE5=Mountain Time
TTITLE6=You Upset Me Baby
TTITLE7=The River
TTITLE8=Burning Hell
EXTD=
EXTT0=
EXTT1=
EXTT2=
EXTT3=
EXTT4=
EXTT5=
EXTT6=
EXTT7=
EXTT8=
PLAYORDER=
